<svg height="512" viewBox="0 0 512 512" width="512" xmlns="http://www.w3.org/2000/svg"><g id="Flat"><path d="m24 456h128v32h-128z" fill="#f5aa31"/><path d="m192 456h128v32h-128z" fill="#f4c067"/><path d="m192 424h128v32h-128z" fill="#f5aa31"/><path d="m192 392h128v32h-128z" fill="#f4c067"/><path d="m192 360h128v32h-128z" fill="#f5aa31"/><path d="m192 328h128v32h-128z" fill="#f4c067"/><path d="m360 456h128v32h-128z" fill="#f5aa31"/><path d="m360 424h128v32h-128z" fill="#f4c067"/><path d="m360 392h128v32h-128z" fill="#f5aa31"/><path d="m360 360h128v32h-128z" fill="#f4c067"/><path d="m360 328h128v32h-128z" fill="#f5aa31"/><path d="m360 296h128v32h-128z" fill="#f4c067"/><path d="m360 264h128v32h-128z" fill="#f5aa31"/><path d="m360 232h128v32h-128z" fill="#f4c067"/><path d="m360 200h128v32h-128z" fill="#f5aa31"/><path d="m288 296v-184.00008a79.99991 79.99991 0 0 1 79.99992-79.99992h.00016a79.99991 79.99991 0 0 1 79.99992 79.99992v.00008h40l-56 56-56-56h40a48 48 0 0 0 -48-47.99995 48 48 0 0 0 -48 48v183.99995z" fill="#3487cb"/><path d="m56 424v-216.00008a79.99991 79.99991 0 0 1 79.99992-79.99992h.00016a79.99991 79.99991 0 0 1 79.99992 79.99992v40.00008h40l-56 56-56-56h40v-40a48 48 0 0 0 -48-48 48 48 0 0 0 -48 48v216z" fill="#3487cb"/><path d="m120 456h32v32h-32z" fill="#f98500"/><path d="m288 424h32v32h-32z" fill="#f98500"/><path d="m288 456h32v32h-32z" fill="#f5aa31"/><path d="m288 360h32v32h-32z" fill="#f98500"/><path d="m288 392h32v32h-32z" fill="#f5aa31"/><path d="m288 328h32v32h-32z" fill="#f5aa31"/><path d="m456 392h32v32h-32z" fill="#f98500"/><path d="m456 456h32v32h-32z" fill="#f98500"/><g fill="#f5aa31"><path d="m456 424h32v32h-32z"/><path d="m456 296h32v32h-32z"/><path d="m456 360h32v32h-32z"/></g><path d="m456 328h32v32h-32z" fill="#f98500"/><path d="m456 200h32v32h-32z" fill="#f98500"/><path d="m456 264h32v32h-32z" fill="#f98500"/><path d="m456 232h32v32h-32z" fill="#f5aa31"/></g></svg>