<svg id="bold" enable-background="new 0 0 32 32" height="512" viewBox="0 0 32 32" width="512" xmlns="http://www.w3.org/2000/svg"><path d="m26 32h-20c-3.314 0-6-2.686-6-6v-20c0-3.314 2.686-6 6-6h20c3.314 0 6 2.686 6 6v20c0 3.314-2.686 6-6 6z" fill="#fff9dd"/><path d="m11.328 11h5.344l1.153-.923c.393-.313.539-.822.373-1.297-.165-.473-.597-.78-1.098-.78h-6.2c-.501 0-.933.307-1.099.781s-.02.983.373 1.296z" fill="#ffd200"/><path d="m22.834 19.333h-.167v-1c0-.919-.747-1.667-1.667-1.667s-1.667.748-1.667 1.667v1h-.167c-.642 0-1.166.524-1.166 1.167v2.333c0 .644.524 1.167 1.167 1.167h3.667c.643 0 1.166-.523 1.166-1.167v-2.333c0-.643-.523-1.167-1.166-1.167zm-2.5-1c0-.368.299-.667.667-.667s.667.299.667.667v1h-1.333v-1z" fill="#ffe777"/><path d="m16.333 22.833v-2.333c0-1.02.547-1.908 1.358-2.407.076-1.035.626-1.935 1.429-2.495-.585-1.384-1.414-2.672-2.357-3.598h-5.526c-1.821 1.788-3.237 4.923-3.237 7.5 0 2.24 1.185 4.5 3.834 4.5h4.5c.086 0 .168-.007.252-.012-.16-.354-.253-.743-.253-1.155zm-2.586-5.333h.507c.779 0 1.413.634 1.413 1.413 0 .701-.505 1.277-1.167 1.395v.525c0 .276-.224.5-.5.5s-.5-.224-.5-.5v-.5h-.667c-.276 0-.5-.224-.5-.5s.224-.5.5-.5h1.42c.228 0 .413-.186.413-.413 0-.234-.186-.42-.413-.42h-.507c-.779 0-1.413-.634-1.413-1.413 0-.701.505-1.277 1.167-1.395v-.525c0-.276.224-.5.5-.5s.5.224.5.5v.5h.667c.276 0 .5.224.5.5s-.224.5-.5.5h-1.42c-.228 0-.413.186-.413.413-.001.234.185.42.413.42z" fill="#ffd200"/></svg>