<svg height="512" viewBox="0 0 512 512" width="512" xmlns="http://www.w3.org/2000/svg" xmlns:xlink="http://www.w3.org/1999/xlink"><linearGradient id="New_Gradient_Swatch_5" gradientUnits="userSpaceOnUse" x1="100.686" x2="475.314" y1="443.314" y2="68.686"><stop offset="0" stop-color="#e3dede"/><stop offset="1" stop-color="#fff"/></linearGradient><linearGradient id="New_Gradient_Swatch_7" gradientUnits="userSpaceOnUse" x1="208.354" x2="367.646" y1="120.311" y2="-38.981"><stop offset="0" stop-color="#816a6a"/><stop offset="1" stop-color="#9d8b8b"/></linearGradient><linearGradient id="New_Gradient_Swatch_7-2" x1="206.354" x2="369.646" xlink:href="#New_Gradient_Swatch_7" y1="548.981" y2="385.689"/><linearGradient id="New_Gradient_Swatch_3" gradientUnits="userSpaceOnUse" x1="61.009" x2="265.764" y1="348.378" y2="143.622"><stop offset="0" stop-color="#f6d084"/><stop offset="1" stop-color="#fae4b9"/></linearGradient><linearGradient id="New_Gradient_Swatch_21" gradientUnits="userSpaceOnUse" x1="213.971" x2="279.419" y1="278.724" y2="213.276"><stop offset="0" stop-color="#f4c361"/><stop offset="1" stop-color="#f7d796"/></linearGradient><g id="_19-ewallet" data-name="19-ewallet"><g id="gradient"><g id="gradient-2" data-name="gradient"><rect fill="url(#New_Gradient_Swatch_5)" height="496" rx="16" width="272" x="152" y="8"/><path d="m408 8h-240a16 16 0 0 0 -16 16v39.956h272v-39.956a16 16 0 0 0 -16-16z" fill="url(#New_Gradient_Swatch_7)"/><path d="m152 488a16 16 0 0 0 16 16h240a16 16 0 0 0 16-16v-47.957h-272z" fill="url(#New_Gradient_Swatch_7-2)"/><g fill="#735a5a"><path d="m306.044 480.021h-34.957a8 8 0 0 1 0-16h34.957a8 8 0 0 1 0 16z"/><circle cx="288" cy="39.804" r="8"/></g></g><path d="m258 140h-176a42.047 42.047 0 0 0 -42 42v128a42.047 42.047 0 0 0 42 42h176a10 10 0 0 0 10-10v-192a10 10 0 0 0 -10-10z" fill="url(#New_Gradient_Swatch_3)"/><path d="m274 212h-48a26.03 26.03 0 0 0 -26 26v16a26.03 26.03 0 0 0 26 26h48a10 10 0 0 0 10-10v-48a10 10 0 0 0 -10-10z" fill="url(#New_Gradient_Swatch_21)"/><path d="m138 236h-16a14 14 0 0 1 0-28h24a6.006 6.006 0 0 1 6 6 10 10 0 0 0 20 0 26.029 26.029 0 0 0 -26-26h-6v-6a10 10 0 0 0 -20 0v6.063a34 34 0 0 0 2 67.937h16a14 14 0 0 1 0 28h-23a6.006 6.006 0 0 1 -6-6 10 10 0 0 0 -20 0 26.029 26.029 0 0 0 26 26h5v6a10 10 0 0 0 20 0v-6.063a34 34 0 0 0 -2-67.937z" fill="#fcf2dc"/><path d="m325.836 275.41a10 10 0 0 1 -7.071-17.07 22 22 0 0 0 0-31.113 10 10 0 0 1 14.142-14.143 42 42 0 0 1 0 59.4 9.962 9.962 0 0 1 -7.071 2.926z" fill="#f0a4a4"/><path d="m359.776 309.352a10 10 0 0 1 -7.071-17.072 70 70 0 0 0 0-98.995 10 10 0 0 1 14.143-14.142 90 90 0 0 1 0 127.28 9.973 9.973 0 0 1 -7.072 2.929z" fill="#f5c2c2"/></g></g></svg>